<svg xmlns="http://www.w3.org/2000/svg" id="Munerix_favicon" viewBox="0 0 32 32">
<style>.var{fill:#485A5F;}@media(prefers-color-scheme:dark){.var{fill:#FAFAFA;}}</style>
<path class="var" d="M15.237,12.1l-3.22-4.778H8.252l4.856,7.348A31.562,31.562,0,0,1,15.237,12.1Z"/>
<path class="var" d="M17.314,16.073c-.468.7-1.013,1.61-1.558,2.6l3.973,6H23.7l-6.1-9.036C17.5,15.788,17.418,15.944,17.314,16.073Z"/>
<path fill="#BA0B10" d="M31.958.806S23.7,5.038,19.625,8.985a50.264,50.264,0,0,0-6.024,6.7c-1.428,2.025-6.31,9.01-6.31,9.01h4.025s3.3-6.284,5.167-9.14A49.044,49.044,0,0,1,31.958.806Z"/>
</svg>