<svg xmlns="http://www.w3.org/2000/svg" viewBox="0 0 48.02 62.16"><defs><style>.cls-1{fill:#485b60;}.cls-2{fill:#7b8e91;}</style></defs><path class="cls-1" d="M27.77,37.64V33.23a3.16,3.16,0,1,0-6.31,0v4a19.39,19.39,0,0,1-5,13l-4.43,4.92a1,1,0,0,0,.07,1.42,1,1,0,0,0,1.43-.07L18,51.54a21.37,21.37,0,0,0,5.5-14.33v-4a1.14,1.14,0,0,1,2.28,0v4.41a23.66,23.66,0,0,1-6.16,15.94l-4.32,4.75A1,1,0,0,0,16,60a1,1,0,0,0,.74-.33l4.32-4.74A25.7,25.7,0,0,0,27.77,37.64Z"/><path class="cls-1" d="M32.06,33.23a7.45,7.45,0,0,0-14.9,0v4a15.1,15.1,0,0,1-3.88,10.11l-3.14,3.49a1,1,0,1,0,1.49,1.35l3.15-3.5a17.1,17.1,0,0,0,4.39-11.45v-4a5.44,5.44,0,0,1,10.88,0v4.41a28,28,0,0,1-7.28,18.83l-3.64,4a1,1,0,0,0,.07,1.42,1,1,0,0,0,1.42-.07l3.64-4a29.93,29.93,0,0,0,7.8-20.18Z"/><path class="cls-2" d="M36.36,33.23a11.75,11.75,0,0,0-23.5,0v4a10.78,10.78,0,0,1-2.77,7.23L7.26,47.59a1,1,0,1,0,1.49,1.35l2.84-3.15a12.83,12.83,0,0,0,3.29-8.58v-4a9.74,9.74,0,1,1,19.47,0v4.41A32.26,32.26,0,0,1,26,59.36l-1,1.11A1,1,0,0,0,25,61.89a1,1,0,0,0,.68.26,1,1,0,0,0,.74-.33l1-1.11a34.22,34.22,0,0,0,8.92-23.07V33.23Z"/><path class="cls-1" d="M8.57,33.23a1,1,0,1,0,2,0,14.07,14.07,0,0,1,12-13.89,1,1,0,1,0-.29-2A16.05,16.05,0,0,0,8.57,33.23Z"/><path class="cls-2" d="M10.58,37.21a1,1,0,0,0-2,0A6.56,6.56,0,0,1,6.9,41.57l-2.52,2.8a1,1,0,0,0,1.49,1.35l2.52-2.81A8.5,8.5,0,0,0,10.58,37.21Z"/><path class="cls-2" d="M38.68,46.2a1,1,0,0,0-1.23.72,36.76,36.76,0,0,1-1.37,4.2,1,1,0,0,0,.56,1.3,1,1,0,0,0,.37.07,1,1,0,0,0,.94-.63,38.21,38.21,0,0,0,1.45-4.43A1,1,0,0,0,38.68,46.2Z"/><path class="cls-1" d="M35.33,21.3A1,1,0,1,0,34,22.79a14.08,14.08,0,0,1,4.66,10.44v4.41a36.6,36.6,0,0,1-.34,5,1,1,0,0,0,.86,1.13h.14a1,1,0,0,0,1-.87,38.86,38.86,0,0,0,.37-5.29V33.23A16.08,16.08,0,0,0,35.33,21.3Z"/><path class="cls-2" d="M30.62,20.55a1,1,0,0,0,.43.1,1,1,0,0,0,.91-.57,1,1,0,0,0-.47-1.35,16,16,0,0,0-4.59-1.38,1,1,0,1,0-.28,2A14,14,0,0,1,30.62,20.55Z"/><path class="cls-1" d="M24.61,12.89c-.37,0-.76,0-1.13,0a1,1,0,0,0,.11,2l1,0A18.35,18.35,0,0,1,42.94,33.23v4.41a1,1,0,1,0,2,0V33.23A20.36,20.36,0,0,0,24.61,12.89Z"/><path class="cls-2" d="M13.6,18.35a1,1,0,0,0,.58-.18,18.24,18.24,0,0,1,5.46-2.58,1,1,0,1,0-.54-1.94A20.25,20.25,0,0,0,13,16.52a1,1,0,0,0,.57,1.83Z"/><path class="cls-1" d="M6.29,37.21v-4a18.22,18.22,0,0,1,5-12.56,1,1,0,0,0,0-1.43,1,1,0,0,0-1.42.05A20.22,20.22,0,0,0,4.27,33.23v4a2.18,2.18,0,0,1-.57,1.48L2.46,40.07a1,1,0,0,0,.08,1.43A1,1,0,0,0,4,41.42L5.2,40A4.23,4.23,0,0,0,6.29,37.21Z"/><path class="cls-2" d="M48,25.39a24.5,24.5,0,0,0-5.22-8.81,1,1,0,1,0-1.48,1.36A22.47,22.47,0,0,1,46.06,26a1,1,0,0,0,.95.69,1,1,0,0,0,.33-.06A1,1,0,0,0,48,25.39Z"/><path class="cls-2" d="M32.57,9.91a1,1,0,0,0-.65,1.91,22.55,22.55,0,0,1,6.19,3.27,1.05,1.05,0,0,0,.6.2,1,1,0,0,0,.61-1.82A24.81,24.81,0,0,0,32.57,9.91Z"/><path class="cls-1" d="M9,16.9a22.49,22.49,0,0,1,15.64-6.29,22,22,0,0,1,3.25.23,1,1,0,1,0,.29-2A24.65,24.65,0,0,0,0,32.11a1,1,0,0,0,1,1H1a1,1,0,0,0,1-1A22.48,22.48,0,0,1,9,16.9Z"/><path class="cls-1" d="M24.61,4.3a29.29,29.29,0,0,0-6.67.77,1,1,0,1,0,.47,2A26.93,26.93,0,0,1,44,14.59a1,1,0,0,0,.72.31,1,1,0,0,0,.7-.28,1,1,0,0,0,0-1.42A28.79,28.79,0,0,0,24.61,4.3Z"/><path class="cls-1" d="M2,16.84a1.05,1.05,0,0,0,.62.21,1,1,0,0,0,.8-.39A27.13,27.13,0,0,1,14.33,8.35,1,1,0,0,0,14.88,7a1,1,0,0,0-1.32-.54A29.07,29.07,0,0,0,1.82,15.42,1,1,0,0,0,2,16.84Z"/><path class="cls-1" d="M10.65,5.2a1,1,0,0,0,.44-.1A31.13,31.13,0,0,1,31.92,2.88a1,1,0,0,0,.47-2A33.31,33.31,0,0,0,24.61,0a32.87,32.87,0,0,0-14.4,3.29,1,1,0,0,0-.47,1.34A1,1,0,0,0,10.65,5.2Z"/><path class="cls-2" d="M36.12,4.21a31.42,31.42,0,0,1,3.06,1.42,1,1,0,0,0,.47.11,1,1,0,0,0,.47-1.89,33,33,0,0,0-3.25-1.51,1,1,0,0,0-.75,1.87Z"/></svg>