<svg xmlns="http://www.w3.org/2000/svg" viewBox="0 0 30 40"><title>GMaps Marker</title><path fill="#485b60" d="M29.57,14.57A14.57,14.57,0,1,0,3.16,23.06h0L15,40,26.85,23.06h0A14.43,14.43,0,0,0,29.57,14.57ZM15,4.92a9.66,9.66,0,1,1-9.65,9.67v0A9.65,9.65,0,0,1,15,4.92Z"/><path fill="#2b3638" opacity="0.5" d="M26.85,23.06h0a14.42,14.42,0,0,0,2.7-7.59l-7.7-7.71h0A9.66,9.66,0,0,1,8.18,21.41h0L19.85,33.07Z"/><g id="x"><path fill="#485A5F" d="M14.78,12.86,12.85,10H10.59l2.91,4.42C13.9,13.88,14.33,13.36,14.78,12.86Z"/><path fill="#485A5F" d="M16,15.26c-.27.42-.6,1-.94,1.55l2.39,3.6h2.39L16.21,15Z"/><path fill="#BA0B10" d="M24.82,6.09a38.46,38.46,0,0,0-7.4,4.9,29.79,29.79,0,0,0-3.61,4L10,20.41h2.41s2-3.76,3.1-5.48A29.66,29.66,0,0,1,24.82,6.09Z"/></g></svg>