<svg xmlns="http://www.w3.org/2000/svg" viewBox="0 0 43.75 62.58"><defs><style>.cls-1{fill:#485b60;}.cls-2{fill:#7b8e91;}</style></defs><polygon class="cls-1" points="32.3 43.65 27.77 41.44 23.13 48.3 26.28 62.58 36.55 54.02 32.3 43.65"/><polygon class="cls-1" points="11.78 43.65 16.32 41.44 20.96 48.3 17.8 62.58 7.54 54.02 11.78 43.65"/><path class="cls-1" d="M31.4,16.93a1.81,1.81,0,0,0-1.81-1.81,1.77,1.77,0,0,0-1.38.65h0l-7.12,8.45h0a1.8,1.8,0,0,1-1.28.53,1.83,1.83,0,0,1-1.16-.42h0c-.06-.06-.13-.12-.18-.18L16.2,22v0l0,0h0a1.83,1.83,0,0,0-1.23-.49,1.81,1.81,0,0,0-1.81,1.81,1.78,1.78,0,0,0,.6,1.34h0l5.09,5h0a1.8,1.8,0,0,0,2.69-.18h0L31,18.09h0A1.79,1.79,0,0,0,31.4,16.93Z"/><path class="cls-2" d="M43.75,21.9l-6.14-4.17L40.78,11l-7.42-.53L32.81,3l-6.65,3.2L21.81,0,17.7,6l-6.76-3.1-.55,7.47-7.48.47L6,17.61,0,21.86l6.11,4.21L3,32.77l7.36.59.6,7.44,6.68-3.23,4.19,6.22,4.27-6.2,6.69,3.26.59-7.43,7.34-.61-3.06-6.73ZM21.81,35.43A13.58,13.58,0,1,1,35.38,21.86,13.57,13.57,0,0,1,21.81,35.43Z"/></svg>