<?xml version="1.0" encoding="utf-8"?>
<!-- Copyright 2021 Munerix. All rights reserved. -->
<svg version="1.2" baseProfile="tiny" id="Munerix" xmlns="http://www.w3.org/2000/svg" xmlns:xlink="http://www.w3.org/1999/xlink" viewBox="0 0 136.29 26">
	<polygon id="M" fill="#485A5F" points="24.61,25.8 24.61,4.58 15.85,25.8 12.48,25.8 3.69,4.57 3.69,25.8 0,25.8 0,0 5.61,0 14.13,20.65 22.69,0 28.29,0 28.29,25.8"/>
	<path id="u" fill="#485A5F" d="M38.65,26c-2.47,0-4.11-0.52-5.17-1.64c-1.03-1.09-1.51-2.75-1.51-5.24V7.48h3.49v11.64c0,2.77,0.12,3.89,3.16,3.89c3.8,0,5.15-0.65,5.15-4.32V7.48h3.49V25.8h-3.52v-1.41C42.45,25.79,40.4,26,38.65,26z"/>
	<path id="n" fill="#485A5F" d="M63.07,25.8V13.57c0-2.84-0.89-3.29-3.76-3.29c-2.07,0-3.24,0.31-3.9,1.03c-0.63,0.69-0.89,1.81-0.89,3.89V25.8h-3.49V7.48h3.49V8.7c1.22-1.23,3.26-1.42,5.02-1.42c2.81,0,4.48,0.47,5.57,1.58c1.02,1.03,1.48,2.59,1.44,4.91l0,12.03H63.07z"/>
	<path id="e" fill="#485A5F" d="M78.04,26c-3.6,0-5.63-0.64-6.82-2.12c-1.22-1.53-1.46-3.9-1.46-7.22c0-3.96,0.49-6.13,1.69-7.48c1.2-1.35,3.11-1.9,6.59-1.9c3.22,0,5,0.46,6.15,1.58c1.22,1.19,1.73,3.16,1.73,6.6v2.19H73.35c0.01,2.46,0.14,3.78,0.69,4.48c0.59,0.74,1.86,0.88,3.99,0.88c3.76,0,4.32-0.3,4.32-2.26l3.56-0.03C85.92,26,81.37,26,78.04,26z M82.32,14.66c-0.07-1.94-0.23-3.18-0.78-3.75c-0.52-0.54-1.5-0.64-3.5-0.64c-2.24,0-3.38,0.28-3.93,0.96c-0.52,0.64-0.64,1.74-0.73,3.43H82.32z"/>
	<path id="r" fill="#485A5F" d="M88.76,25.8V7.48h3.45l-0.08,1.28c0.99-0.97,2.52-1.48,4.51-1.48c3.51,0,5.29,1.8,5.29,5.35l-3.36,0.1c0-1.93-0.54-2.46-2.49-2.46c-1.38,0-2.35,0.29-2.94,0.9c-0.64,0.65-0.92,1.7-0.88,3.31l0,11.31H88.76z"/>
	<rect id="i" x="104.36" y="7.48" fill="#485A5F" width="3.49" height="18.32"/>
	<g id="x">
		<path fill="#485A5F" d="M118.63,12.51l-3.38-5.03h-3.99l5.13,7.76C117.01,14.4,117.75,13.5,118.63,12.51z"/>
		<path fill="#485A5F" d="M120.83,16.73c-0.48,0.74-1.06,1.7-1.65,2.73l4.19,6.34h4.21l-6.42-9.55C121.04,16.41,120.93,16.57,120.83,16.73z"/>
		<path fill="#BA0B10" d="M136.29,0.59c0,0-8.73,4.46-13.02,8.63c-2.68,2.61-4.87,4.95-6.35,7.07s-6.66,9.5-6.66,9.5h4.24c0,0,3.47-6.63,5.45-9.65C124.38,9.4,131.04,3.6,136.29,0.59z"/>
	</g>
</svg>
