<svg xmlns="http://www.w3.org/2000/svg" viewBox="0 0 599.95 110.06"><defs><style>.cls-1{fill:#000041;}.cls-2{fill:#4a3b83;}.cls-3{fill:#a89dc3;}</style></defs><path class="cls-1" d="M56.55,93c15.8,6,32.9-.1,42.5-11.9-8,8.2-21,12.4-32.8,7.7-17.7-7.1-24-21.5-18.9-37.3s20.5-25.3,37.2-20c12.1,3.9,20.5,14,22.2,25.3-1-15.1-11.7-29.2-27.7-34.3-20.6-6.6-42.7,3.9-48.9,23.3s6.2,39.6,26.4,47.2"/><path class="cls-2" d="M93,54A32.38,32.38,0,0,1,63,88.4c-12.8.9-24.9-6.7-30.8-17.3,6.6,14.7,22.4,25.3,39.4,24.2a39.93,39.93,0,0,0,37-42.3C107,31.1,91.65,36.3,93,54"/><path class="cls-1" d="M54.75,108.4a52.82,52.82,0,0,0,47.8-36.5,42.54,42.54,0,1,1-1.5-36.2,52.55,52.55,0,1,0-46.3,72.7"/><path class="cls-3" d="M112.45,49.4c-.4-9.7-3.7-16.4-7-22.7-1.6,2.3-3,4.2-4.3,6a39.67,39.67,0,0,0-70.5,11.8A32.3,32.3,0,0,1,58.55,24c38.2,0,34.8,35.7,25,51.1-8.3,13.7-22.2,23.8-37.5,24.5A45.7,45.7,0,0,1,3.35,74.5,56.41,56.41,0,0,0,58.15,110c31.3-1.3,55.7-28.5,54.3-60.6"/><path class="cls-2" d="M114.65,70.3c.5-3.8,1-7.9,1.3-12.1A58.19,58.19,0,0,0,57.75,0C29.85,0,6.25,19.6,1,45.9c6.6-20.5,24.3-35.2,45.2-35.2,26.6,0,48.1,23.7,48.1,52.9,0,5.6-3.2,48.2,35.8,44.2-2.6-.8-21.2-.6-15.4-37.5"/><path class="cls-2" d="M151.75,86.7h-10.2V23.3h36.9c16.5,0,24.8,6.3,24.8,18.8s-8.4,18.8-24.8,18.8h-26.7V86.7Zm0-35.2h24.8c14.1,0,16.9-3.6,16.9-9.4s-2.8-9.5-16.9-9.5h-24.8Z"/><path class="cls-2" d="M274.85,86.7h-12.7l-19.5-26.8H221V86.7h-10.1V23.3h36.4c20.9,0,25.3,10,25.3,18.3,0,11.5-9.1,16.7-17.8,17.9Zm-53.8-36.2h24.5c12.4,0,17.1-2.4,17.1-9s-4.6-8.9-17.1-8.9h-24.5V50.5Z"/><rect class="cls-2" x="284.85" y="23.3" width="10.2" height="63.4"/><polygon class="cls-2" points="373.75 86.7 364.35 86.7 317.95 35 317.95 86.7 308.05 86.7 308.05 23.3 320.55 23.3 363.55 70.8 363.55 23.3 373.75 23.3 373.75 86.7"/><path class="cls-2" d="M418.55,88.2c-22.2,0-36-12.7-36-33.1,0-20.6,13.8-33.3,35.9-33.3,15.6,0,28,6.8,33,18.2l.6,1.3-9,4.1-.6-1.4c-4.7-10.9-15.6-13.2-23.9-13.2-16.5,0-25.6,9-25.6,25.2,0,14.3,9.8,22.8,26.3,22.8,11.1,0,19.2-4.5,24.1-13.5l.7-1.2,9.1,4.4-.7,1.3C446,82.2,435,88.2,418.55,88.2"/><polygon class="cls-2" points="518.55 86.7 460.65 86.7 460.65 23.3 517.55 23.3 517.55 32.7 470.85 32.7 470.85 49.1 509.85 49.1 509.85 58.5 470.85 58.5 470.85 77.3 518.55 77.3 518.55 86.7"/><path class="cls-2" d="M579.45,86.7h-55.1V79.3l.2-.3c1.5-2.9,6-11.7,22.2-19.8,2.9-1.5,5.6-2.7,8.1-3.8,9.5-4.3,14.7-6.7,14.7-14.1,0-6.3-6.4-10.5-15.9-10.5-12.9,0-17.4,6.4-19.9,12l-.6,1.3-8.5-4,.4-1.2c1-2.9,6.8-17.1,27.8-17.1,16.9,0,26.6,7,26.6,19.2,0,13.5-10.2,17.9-20,22.2l-.5.2c-9.6,4.2-16.7,7.4-22.7,14.3h43.2Z"/><path class="cls-2" d="M600,30.3a7.2,7.2,0,1,1-7.2-7,7.07,7.07,0,0,1,7.2,7m-12.6,0a5.44,5.44,0,0,0,5.5,5.6,5.55,5.55,0,0,0-.1-11.1,5.34,5.34,0,0,0-5.4,5.5m4.3,3.6h-1.6v-7a16.54,16.54,0,0,1,2.7-.2,3.47,3.47,0,0,1,2.4.6,1.81,1.81,0,0,1-.7,3.2v.1c.7.2,1,.8,1.2,1.7a7.18,7.18,0,0,0,.5,1.7h-1.7a7.14,7.14,0,0,1-.5-1.7c-.1-.7-.6-1.1-1.5-1.1h-.8v2.7Zm0-3.9h.8c.9,0,1.6-.3,1.6-1s-.5-1.1-1.5-1.1a2.22,2.22,0,0,0-.9.1v2Z"/></svg>