<svg xmlns="http://www.w3.org/2000/svg" viewBox="0 0 68.22 53.63"><defs><style>.cls-1{fill:#485b60;}.cls-2{fill:#7b8e91;}</style></defs><path class="cls-1" d="M56,4.93,43.75,24.87c0,2.12,3.63,9.88,12.23,9.88s12.24-7.91,12.24-9.88ZM47,24.84l8.92-14.53,8.92,14.53Z"/><path class="cls-1" d="M12.23,15.29,0,35.22c0,2.13,3.63,9.89,12.23,9.89s12.24-7.92,12.24-9.89Zm-9,19.9,8.92-14.53,8.92,14.53Z"/><path class="cls-2" d="M59.92,2.92l-21.63,5a4.66,4.66,0,0,1-3.13,3.94V48.92h12v4.71H20.27V48.92H32.15V11.85A4.68,4.68,0,0,1,29.7,9.9l-21.64,5L7.39,12,29,7a4.66,4.66,0,0,1,8.6-2L59.25,0Z"/></svg>